<svg width="24" height="24" viewBox="0 0 128 128" fill="none" xmlns="http://www.w3.org/2000/svg">
<g clip-path="url(#clip0_1255_221)">
<path d="M45.23 57.2C39.07 57.2 34.06 62.8 34.06 69.68C34.06 76.56 39.06 82.15 45.23 82.15C51.4 82.15 56.39 76.56 56.39 69.68C56.39 62.8 51.38 57.2 45.23 57.2ZM45.23 78.1999C41.23 78.1999 38.06 74.4 38.06 69.73C38.06 65.06 41.27 61.25 45.23 61.25C49.19 61.25 52.39 65.05 52.39 69.73C52.39 74.41 49.18 78.15 45.23 78.15V78.1999Z" fill="white"/>
<path d="M121.83 59.5801C119.094 48.8695 115.232 38.4784 110.31 28.5801C110.142 28.2676 109.898 28.0027 109.6 27.8101C104.767 24.9339 99.6663 22.5327 94.37 20.6401C84.55 17.0701 79.91 17.0001 79.72 17.0001C79.2347 16.9953 78.7642 17.1672 78.3962 17.4836C78.0283 17.8001 77.7879 18.2395 77.72 18.7201L77.12 22.8901C68.3814 22.0234 59.5786 22.0234 50.84 22.8901L50.24 18.7201C50.1721 18.2395 49.9317 17.8001 49.5638 17.4836C49.1958 17.1672 48.7253 16.9953 48.24 17.0001C48.05 17.0001 43.41 17.0001 33.59 20.6101C28.3063 22.5146 23.2193 24.9259 18.4 27.8101C18.1021 28.0027 17.8578 28.2676 17.69 28.5801C12.7674 38.4782 8.90592 48.8694 6.17 59.5801C1 80.4601 -2.91504e-07 90.9101 -2.91504e-07 91.3401C-0.0243248 91.6103 0.00657142 91.8826 0.0908089 92.1405C0.175046 92.3983 0.310864 92.6364 0.49 92.8401C5.63058 98.2763 11.8226 102.611 18.69 105.58C25.0126 108.269 31.6694 110.092 38.48 111C38.8623 111.035 39.2465 110.96 39.587 110.782C39.9274 110.605 40.2097 110.333 40.4 110L45.8 100.75C51.8119 101.774 57.9016 102.273 64 102.24C70.099 102.266 76.1886 101.761 82.2 100.73L87.6 110C87.7745 110.302 88.0251 110.554 88.3268 110.729C88.6286 110.905 88.971 110.998 89.32 111H89.52C96.3253 110.104 102.979 108.295 109.3 105.62C116.167 102.651 122.359 98.3163 127.5 92.8801C127.679 92.6764 127.815 92.4383 127.899 92.1805C127.983 91.9226 128.014 91.6503 127.99 91.3801C128 90.9101 127.05 80.4601 121.83 59.5801ZM107.77 101.89C102.187 104.209 96.3502 105.861 90.38 106.81L86.3 99.8101C90.98 98.5701 100.72 95.3501 108.13 88.6101C108.327 88.4335 108.487 88.2198 108.602 87.9812C108.716 87.7426 108.782 87.4839 108.797 87.2197C108.811 86.9555 108.773 86.6911 108.686 86.4415C108.598 86.1919 108.462 85.9621 108.285 85.7651C108.108 85.5681 107.895 85.4079 107.656 85.2935C107.418 85.1791 107.159 85.1128 106.895 85.0984C106.63 85.084 106.366 85.1218 106.116 85.2096C105.867 85.2974 105.637 85.4335 105.44 85.6101C96.44 93.8401 82.98 96.4501 82.84 96.4801H82.78C76.5924 97.6781 70.3024 98.2675 64 98.2401C57.6995 98.2873 51.4096 97.7179 45.22 96.5401H45.16C45.02 96.5401 31.61 93.9001 22.56 85.6701C22.1622 85.3134 21.6389 85.1293 21.1054 85.1584C20.5719 85.1874 20.0717 85.4273 19.715 85.8251C19.3583 86.2229 19.1742 86.7462 19.2033 87.2797C19.2323 87.8132 19.4722 88.3134 19.87 88.6701C27.28 95.4101 37.02 98.6701 41.7 99.8701L37.62 106.87C31.6484 105.927 25.8106 104.275 20.23 101.95C14.1906 99.2871 8.7106 95.5037 4.08 90.8001C4.41 87.8901 5.76 77.7301 10.08 60.5601C12.7094 50.3366 16.3681 40.4059 21 30.9201C25.467 28.3415 30.1516 26.1598 35 24.4001C38.7464 22.9606 42.625 21.8921 46.58 21.2101L46.93 23.6001C42.93 24.6001 33.08 27.4601 25.28 33.1301C25.0679 33.2851 24.8884 33.4803 24.7518 33.7046C24.6151 33.9289 24.524 34.178 24.4836 34.4375C24.4021 34.9617 24.532 35.4968 24.845 35.9251C25.158 36.3534 25.6282 36.6399 26.1524 36.7215C26.4119 36.7619 26.6769 36.7507 26.9321 36.6887C27.1874 36.6267 27.4279 36.5151 27.64 36.3601C36.46 29.9501 48.64 27.3001 49.5 27.1101C54.3116 26.5336 59.154 26.2531 64 26.2701C68.8494 26.2508 73.6953 26.5313 78.51 27.1101C79.42 27.3001 91.51 29.9401 100.37 36.3601C100.798 36.6731 101.333 36.803 101.858 36.7215C102.382 36.6399 102.852 36.3534 103.165 35.9251C103.478 35.4968 103.608 34.9617 103.526 34.4375C103.445 33.9133 103.158 33.4431 102.73 33.1301C94.93 27.4601 85.12 24.6101 81.08 23.6001L81.43 21.2101C85.3811 21.8952 89.2561 22.9636 93 24.4001C97.8484 26.1598 102.533 28.3415 107 30.9201C111.659 40.4028 115.345 50.3336 118 60.5601C122.29 77.7301 123.64 87.8901 124 90.8001C119.341 95.4905 113.833 99.2538 107.77 101.89Z" fill="white"/>
<path d="M82.77 57.2C76.62 57.2 71.61 62.8 71.61 69.68C71.61 76.56 76.61 82.15 82.77 82.15C88.93 82.15 93.94 76.56 93.94 69.68C93.94 62.8 88.93 57.2 82.77 57.2ZM82.77 78.1999C78.77 78.1999 75.61 74.4 75.61 69.73C75.61 65.06 78.82 61.25 82.77 61.25C86.72 61.25 89.94 65.05 89.94 69.73C89.94 74.41 86.73 78.15 82.77 78.15V78.1999Z" fill="white"/>
</g>
<defs>
<clipPath id="clip0_1255_221">
<rect width="128" height="128" fill="white"/>
</clipPath>
</defs>
</svg>
